<?xml version="1.0" encoding="UTF-8"?>
<svg id="Layer_2" data-name="Layer 2" xmlns="http://www.w3.org/2000/svg" viewBox="0 0 104.35 115.36">
  <defs>
    <style>
      .cls-1 {
        fill: #231f20;
        stroke-width: 0px;
      }
    </style>
  </defs>
  <g id="Layer_1-2" data-name="Layer 1">
    <path class="cls-1" d="m100.57,68.7c-.79-.11-1.31-.88-1.11-1.65,1.88-7.28,3.36-16.04,2.53-23.99-.24-2.3-.42-7.66,1.88-12.78.44-.99-.43-2.07-1.49-1.87-4.18.82-7.34,3.1-10.8,5.52-.96.67-2.26-.13-2.09-1.29.27-1.88.17-3.68.27-6.01.12-3.03-.48-2.38-.13-7.76.16-2.54,1.34-5.29,4.18-8.31.82-.87.19-2.29-1-2.27-10.69.26-18.52,6.21-25.86,9.48-1.21.54-2.36-.8-1.68-1.94.94-1.56,1.57-3.33,1.91-5.12.49-2.6.99-6.01,2.19-8.9.44-1.05-.58-2.12-1.66-1.77-7.69,2.53-11.65,4.83-17.63,9.22-2.98,2.18-6.28,4.75-9.76,6-2.13.77-3.25,1.04-4.79,1.61,0,0-4.52,1.51-6.73,2.44-4.43,1.86-9.52,6.33-9.9,10.54,0,.07-.01.15-.02.23-.07,1.05,1.05,1.76,1.98,1.25,6.86-3.74,14.56-5.72,22.4-5.72,25.67,0,46.79,21.12,46.79,46.79,0,4.42-.63,8.82-1.86,13.06-.27.92.49,1.81,1.44,1.7,2.26-.26,6.08-1.42,9.55-5.94,3.81-4.96,4.52-8,5.14-10.8.19-.84-.46-1.64-1.32-1.63-.97.01-1.65-.01-2.43-.12Z"/>
    <path class="cls-1" d="m47.14,29.02c-14.65-1.32-28.23,4.85-37.02,15.32-.35.42-.02,1.05.53,1.01.06,0,.12-.01.19-.01,4.08-.31,8.53-.76,12.82-.87,8.23-.34,20.78-1.33,28.95-.97,1.42.06,10.47.92,11.33,1.14.1.03.42.13.69.24.25.1.4.35.38.62-.24,3.22-.25,3.46-.49,6.68-.02.3-.25.54-.55.57-.52.05-1.3.1-1.88.92-1.23,1.75-3.94,13.27-10.97,16.19-3.81,1.58-10.39,1.6-13.83-.02-3.96-1.86-5.8-6.14-7.06-10.19-1.5-4.81-.95-9.47-4.54-9.13-3.29.32-3.27,5.14-5.22,9.91-.88,2.14-2.98,6.03-4.65,7.4-3.58,2.96-11.54,2.64-14.55.06-.02-.02-.04-.03-.06-.05-.37-.33-.98-.12-1.02.37,0,0,0,0,0,.01-2.14,23.79,15.41,44.82,39.2,46.96,23.79,2.14,44.82-15.41,46.96-39.2,2.14-23.79-15.41-44.82-39.2-46.96Z"/>
  </g>
</svg>