<?xml version="1.0" encoding="UTF-8"?>
<svg id="Layer_2" data-name="Layer 2" xmlns="http://www.w3.org/2000/svg" xmlns:xlink="http://www.w3.org/1999/xlink" viewBox="0 0 419.84 104.82">
  <defs>
    <style>
      .cls-1 {
        fill: url(#linear-gradient);
      }

      .cls-1, .cls-2, .cls-3, .cls-4 {
        stroke-width: 0px;
      }

      .cls-3 {
        fill: #0e1110;
      }

      .cls-4 {
        fill: #231f20;
      }
    </style>
    <linearGradient id="linear-gradient" x1="17.05" y1="92.44" x2="96.88" y2="12.61" gradientUnits="userSpaceOnUse">
      <stop offset="0" stop-color="#f2c9c2"/>
      <stop offset=".37" stop-color="#f79e84"/>
      <stop offset=".47" stop-color="#ee8b81"/>
      <stop offset=".7" stop-color="#de657d"/>
      <stop offset=".81" stop-color="#b84762"/>
      <stop offset=".93" stop-color="#962d4a"/>
      <stop offset="1" stop-color="#8a2341"/>
    </linearGradient>
  </defs>
  <g id="Layer_1-2" data-name="Layer 1">
    <g>
      <path class="cls-2" d="m126.95,78.68c-10.44,0-16.99-4.39-17.28-12.89,0-.29.29-.58.58-.58h7.27c.29,0,.58.29.58.58.22,4.9,3.38,7.13,9.22,7.13,4.9,0,7.85-1.94,7.85-5.4,0-8.21-24.63-.94-24.63-16.2,0-7.49,5.98-11.45,15.41-11.45s15.62,3.82,16.2,11.59c0,.29-.29.58-.58.58h-6.91c-.29,0-.58-.22-.65-.58-.58-3.82-3.31-5.98-8.21-5.98-4.25,0-6.98,1.58-6.98,5.18,0,7.99,24.63.43,24.63,16.13,0,7.56-7.06,11.88-16.49,11.88Z"/>
      <path class="cls-2" d="m158.84,78.68c-7.78,0-12.67-5.18-12.67-14.55v-7.63l-.14-15.19c0-.29.29-.58.58-.58h7.63c.29,0,.58.29.58.58l-.14,15.19v7.42c0,5.26,2.81,7.99,6.7,7.99,4.39,0,8.42-3.67,9.15-11.38v-4.03l-.07-15.19c0-.29.29-.58.58-.58h7.7c.29,0,.58.29.58.58l-.14,16.85.07,19.08c0,.29-.29.58-.58.58h-7.27c-.29,0-.58-.29-.58-.58l.22-4.82c-2.45,3.46-6.62,6.26-12.17,6.26Z"/>
      <path class="cls-2" d="m183.82,77.81c-.29,0-.58-.29-.58-.58l.22-16.85-.07-19.08c0-.29.29-.58.58-.58h7.27c.29,0,.58.29.58.58l-.22,4.82c2.38-3.46,6.62-6.26,12.17-6.26,7.71,0,12.67,5.18,12.67,14.55v7.63l.15,15.19c0,.29-.29.58-.58.58h-7.63c-.29,0-.58-.29-.58-.58l.14-15.19v-7.42c0-5.26-2.81-7.99-6.77-7.99-4.32,0-8.42,3.67-9.15,11.38v4.03l.14,15.19c0,.29-.29.58-.58.58h-7.78Z"/>
      <path class="cls-2" d="m239.98,78.53c-4.9,0-8.71-1.87-11.23-5.47l.22,4.18c0,.29-.29.58-.58.58h-7.63c-.29,0-.58-.29-.58-.58l.22-25.71-.22-23.55c0-.29.29-.58.58-.58h7.63c.29,0,.58.29.58.58l-.07,17.57c2.59-3.53,6.34-5.54,11.23-5.54,10.3,0,15.7,8.35,15.7,19.15s-5.9,19.37-15.84,19.37Zm-2.38-6.26c6.34.14,9.36-4.82,9.36-12.67,0-8.42-3.1-13.39-9.14-13.32-5.83,0-9.22,4.25-9.29,12.6-.07,8.57,3.24,13.32,9.07,13.39Z"/>
      <path class="cls-2" d="m285.34,77.81c-.29,0-.58-.29-.58-.58l.14-4.54c-2.52,3.67-6.41,5.83-11.38,5.83-10.3,0-15.7-8.35-15.7-19.15s5.91-19.37,15.84-19.37c4.9,0,8.71,1.87,11.23,5.47l-.22-4.18c0-.29.29-.58.58-.58h7.63c.29,0,.58.29.58.58l-.22,17.86.22,18.07c0,.29-.29.58-.58.58h-7.56Zm-9.5-5.4c5.83,0,9.22-4.32,9.29-12.89.07-8.57-3.24-13.32-9.07-13.39-6.34-.07-9.43,4.75-9.43,12.67,0,8.64,3.17,13.61,9.22,13.61Z"/>
      <path class="cls-2" d="m318.39,76.66c0,.36-.22.65-.58.72-1.8.58-3.96,1.08-5.98,1.08-5.83,0-11.09-2.95-11.09-11.23l.07-20.02h-4.25c-.29,0-.58-.29-.58-.58v-5.33c0-.29.29-.58.58-.58h4.25l-.07-8.71c0-.29.29-.58.58-.58h7.56c.29,0,.58.29.58.58l-.07,8.71h8.42c.29,0,.58.29.58.58v5.33c0,.29-.29.58-.58.58h-8.42v19.8c0,3.74,1.58,4.9,4.32,4.9,1.66,0,3.02-.29,4.1-.58.29-.07.58.14.58.43v4.9Z"/>
      <path class="cls-2" d="m338.91,46.56c-4.25,0-8.28,3.38-9.5,9.72l.22,20.95c0,.29-.29.58-.58.58h-7.49c-.29,0-.58-.29-.58-.58l.29-24.84-.29-24.41c0-.29.29-.58.58-.58h7.49c.29,0,.58.29.58.58l-.14,17.71c2.45-3.53,6.34-5.83,11.67-5.83,8.07,0,13.03,4.9,12.89,15.7v7.71l.14,13.97c0,.29-.29.58-.58.58h-7.7c-.29,0-.58-.29-.58-.58l.22-13.83-.07-8.78c0-5.62-2.88-8.06-6.55-8.06Z"/>
      <path class="cls-2" d="m391.76,65.14c.29,0,.58.29.5.58-1.01,7.13-7.13,12.96-17.07,12.96-11.95,0-18.36-7.99-18.36-19.3s6.84-19.51,18.07-19.51,18,7.78,18.22,20.45c0,.29-.29.58-.58.58h-27.08c.36,7.92,3.6,11.66,9.87,11.66,4.54,0,7.49-2.23,8.5-6.84.07-.36.43-.58.72-.58h7.2Zm-16.78-19.23c-5.18,0-8.28,3.17-9.22,9.15h18c-.36-4.82-3.1-9.15-8.79-9.15Z"/>
      <path class="cls-2" d="m396.58,77.81c-.29,0-.58-.29-.58-.58l.22-18.15-.22-17.79c0-.29.29-.58.58-.58h7.49c.29,0,.58.29.58.58l-.22,5.9c2.74-4.46,7.63-6.77,12.89-6.77.72,0,1.37.07,1.94.14.29.07.58.43.58.72v5.62c0,.29-.29.5-.58.5-.5-.07-1.15-.07-1.73-.07-6.98,0-12.6,4.03-12.89,12.46l.07,17.43c0,.29-.29.58-.58.58h-7.56Z"/>
    </g>
    <path class="cls-1" d="m49.17,26.64c21.54,1.94,37.44,20.98,35.5,42.52-1.94,21.54-20.98,37.44-42.52,35.5-21.54-1.94-37.44-20.98-35.5-42.52,1.94-21.54,20.98-37.44,42.52-35.5Zm47.73,35.83c-.38-.07-.61-.44-.52-.81,1.77-6.7,3.22-14.89,2.44-22.3-.23-2.22-.4-7.58,2.14-12.48.25-.47-.13-1.02-.66-.96-4.83.57-8.13,3.29-12.04,5.96-.49.34-1.15-.11-1.01-.69.55-2.2.39-4.09.49-6.7.11-2.75-.43-2.16-.12-7.03.17-2.55,1.46-5.35,4.7-8.45.42-.4.15-1.11-.44-1.13-11.32-.31-19.15,6.57-26.66,9.34-.63.23-1.17-.52-.74-1.03,1.46-1.7,2.38-3.9,2.8-6.12.51-2.68,1.02-6.32,2.48-9.12.27-.52-.22-1.1-.78-.93-7.78,2.46-11.46,4.54-17.18,8.74-2.7,1.98-5.69,4.3-8.83,5.43-1.93.7-2.95.94-4.34,1.46,0,0-4.09,1.37-6.09,2.21-4.01,1.68-8.62,5.73-8.97,9.54-.02.27-.05.76-.07,1.24-.02.51.53.85.98.59,6.43-3.7,13.72-5.66,21.15-5.66,23.24,0,42.36,19.12,42.36,42.36,0,4.26-.64,8.5-1.91,12.57-.13.43.18.86.63.85,1.77-.03,5.85-.69,9.55-5.43,2.89-3.71,4.19-7.73,4.81-10.47.09-.42-.23-.81-.66-.8-1.58.04-2.32.02-3.54-.2Z"/>
    <path class="cls-3" d="m11.55,41.5c1.02-.13,2.08-.22,3.11-.3,3.69-.28,7.73-.69,11.61-.79,7.45-.31,18.81-1.2,26.21-.88,1.28.06,9.48.83,10.26,1.04.16.04.96.31.99.43q-.25,3.37-.49,6.75c-.17.33-1.38-.13-2.17.99-1.11,1.58-3.57,12.01-9.93,14.66-3.45,1.43-9.41,1.45-12.53-.01-3.59-1.69-5.25-5.56-6.39-9.23-1.36-4.36-.86-8.58-4.11-8.26-2.98.29-2.96,4.65-4.73,8.97-.8,1.94-2.7,5.46-4.21,6.7-3.24,2.68-10.45,2.39-13.17.05-1.66-1.43-3.08-4.6-3.66-6.88-.48-1.89-.49-5.63-2.33-5.56.13-1.05.2-4.79.31-5.21.02-.08.28-.42.34-.47"/>
    <g>
      <path class="cls-4" d="m112.61,97.92c-1.37.01-2.63-.74-2.58-2.16.01-.07.07-.13.14-.13h.43c.07,0,.13.06.13.13.01,1.04.84,1.6,1.93,1.6,1.54,0,2.35-.9,2.82-2.87l.13-.55c-.62.83-1.44,1.33-2.49,1.33-1.95,0-2.75-1.72-2.21-3.99.42-1.85,1.71-3.39,3.5-3.39,1.2,0,1.98.6,2.21,1.7l.31-1.46c.01-.07.08-.13.15-.13h.45c.07,0,.11.06.1.13l-.5,2.09-.98,4.27c-.52,2.28-1.57,3.43-3.53,3.43Zm.69-3.19c1.3.01,2.38-.95,2.84-2.89.52-2.16-.11-3.4-1.68-3.4s-2.49,1.25-2.87,2.83c-.43,1.92,0,3.47,1.71,3.46Z"/>
      <path class="cls-4" d="m117.98,95.22c-.07,0-.11-.06-.1-.13l.88-3.68.73-3.28c.01-.07.08-.13.15-.13h.46c.07,0,.11.06.1.13l-.77,3.26-.83,3.7c-.01.07-.08.13-.15.13h-.48Zm1.88-8.21c-.06,0-.11-.06-.1-.13l.15-.71c.01-.07.08-.13.15-.13h.43c.07,0,.11.06.1.13l-.15.71c-.01.07-.08.13-.15.13h-.43Z"/>
      <path class="cls-4" d="m123.56,95.07c-.01.07-.08.14-.15.15-.2.06-.48.11-.71.11-.97,0-1.58-.46-1.23-2l1.11-4.75h-.8c-.06,0-.11-.06-.1-.13l.07-.32c.01-.07.08-.13.15-.13h.81l.36-1.68c.01-.07.08-.13.15-.13h.46c.07,0,.11.06.1.13l-.41,1.68h1.69c.07,0,.11.06.1.13l-.07.32c-.01.07-.08.13-.15.13h-1.71l-1.09,4.75c-.25,1.08-.04,1.4.77,1.4.2,0,.43-.03.62-.07.07-.01.11.04.1.1l-.07.31Z"/>
      <path class="cls-4" d="m125.07,95.22c-.07,0-.11-.06-.1-.13l.74-3.04,1.47-6.51c.01-.07.08-.13.15-.13h.45c.07,0,.11.06.1.13l-.94,3.94c.5-.87,1.47-1.64,2.61-1.64,1.41,0,2.34,1.04,1.9,2.91l-.31,1.37-.67,2.97c-.01.07-.08.13-.15.13h-.46c-.06,0-.11-.06-.1-.13l.71-2.97.29-1.3c.39-1.64-.29-2.4-1.4-2.4s-1.98.81-2.63,2.13l-.38,1.57-.66,2.97c-.01.07-.08.13-.15.13h-.48Z"/>
      <path class="cls-4" d="m139.21,88.01c.07,0,.11.06.1.13l-.73,3.04-.88,3.92c-.01.07-.08.13-.15.13h-.45c-.06,0-.11-.06-.1-.13l.35-1.36c-.5.88-1.48,1.65-2.62,1.65-1.4,0-2.33-1.04-1.89-2.91l.31-1.37.67-2.97c.01-.07.08-.13.15-.13h.45c.07,0,.11.06.1.13l-.7,2.97-.29,1.3c-.39,1.64.29,2.4,1.4,2.4s1.96-.81,2.62-2.13l.38-1.57.67-2.97c.01-.07.08-.13.15-.13h.46Z"/>
      <path class="cls-4" d="m142.82,95.33c-1.23,0-2-.66-2.23-1.82l-.34,1.57c-.01.07-.08.13-.15.13h-.45c-.07,0-.11-.06-.1-.13l1.34-5.63.87-3.91c.01-.07.08-.13.15-.13h.46c.07,0,.11.06.1.13l-.87,3.68c.59-.81,1.4-1.33,2.44-1.33,1.88,0,2.7,1.64,2.28,3.82-.34,1.89-1.61,3.61-3.52,3.61Zm-.06-.55c1.61,0,2.58-1.43,2.87-3.07.35-1.85-.14-3.28-1.75-3.28-1.42,0-2.49,1.23-2.86,3.14-.39,2.02.25,3.21,1.74,3.21Z"/>
      <path class="cls-4" d="m146.6,95.22c-.07,0-.11-.06-.1-.13l.17-.77c.01-.07.08-.13.15-.13h.63c.07,0,.11.06.1.13l-.18.77c-.01.07-.08.13-.15.13h-.62Z"/>
      <path class="cls-4" d="m151.82,95.36c-1.74,0-2.79-1.2-2.79-3.04,0-2.35,1.56-4.45,3.84-4.45,1.61,0,2.59.94,2.61,2.55,0,.07-.06.13-.13.13h-.41c-.07,0-.13-.06-.13-.13.03-1.22-.69-1.99-1.99-1.99-1.95,0-3.11,1.9-3.11,3.91,0,1.51.71,2.48,2.14,2.48,1.29,0,2.19-.85,2.55-2,.03-.08.1-.13.17-.13h.41c.07,0,.11.06.08.13-.49,1.48-1.57,2.55-3.25,2.55Z"/>
      <path class="cls-4" d="m160.17,87.87c1.75,0,2.82,1.2,2.82,3.05,0,2.33-1.55,4.44-3.82,4.44-1.75,0-2.82-1.2-2.82-3.04,0-2.35,1.55-4.45,3.82-4.45Zm-.99,6.95c1.93,0,3.12-1.85,3.12-3.92,0-1.51-.77-2.48-2.16-2.48-1.92,0-3.11,1.86-3.11,3.92,0,1.5.71,2.48,2.14,2.48Z"/>
      <path class="cls-4" d="m165,92.21l-.64,2.89c-.01.07-.08.13-.15.13h-.48c-.07,0-.11-.06-.1-.13l.7-2.89.91-4.08c.01-.07.08-.13.15-.13h.46c.07,0,.11.06.1.13l-.36,1.36c.52-.87,1.4-1.65,2.51-1.65.99,0,1.72.6,1.85,1.69.57-.97,1.47-1.69,2.55-1.69,1.34,0,2.21,1.05,1.78,2.91l-.32,1.46-.64,2.89c-.01.07-.08.13-.15.13h-.48c-.06,0-.11-.06-.1-.13l.7-2.89.31-1.39c.39-1.64-.25-2.4-1.26-2.4-.95,0-1.75.71-2.38,1.88-.03.14-.04.29-.08.45l-.32,1.46-.66,2.89c-.01.07-.08.13-.15.13h-.46c-.06,0-.11-.06-.1-.13l.69-2.89.32-1.39c.39-1.64-.25-2.4-1.26-2.4s-1.86.83-2.52,2.13l-.39,1.65Z"/>
      <path class="cls-4" d="m174.09,97.26c-.06,0-.1-.06-.07-.11l6.74-11.96c.03-.07.11-.11.18-.11h.34c.06,0,.1.06.07.11l-6.74,11.96c-.03.07-.11.11-.18.11h-.34Z"/>
      <path class="cls-4" d="m184.89,95.22c-.06,0-.11-.06-.1-.13l.29-1.12c-.62.84-1.46,1.34-2.49,1.34-1.93,0-2.75-1.74-2.21-4.03.42-1.83,1.71-3.39,3.5-3.39,1.2,0,1.97.6,2.23,1.7l.87-4.05c.01-.07.08-.13.15-.13h.46c.07,0,.11.06.1.13l-1.34,5.71-.85,3.84c-.01.07-.08.13-.15.13h-.45Zm-2.12-.45c1.3,0,2.38-.98,2.86-2.91.5-2.16-.13-3.42-1.7-3.42s-2.49,1.26-2.86,2.83c-.45,1.93,0,3.5,1.69,3.5Z"/>
      <path class="cls-4" d="m187.79,95.22c-.07,0-.11-.06-.1-.13l1.16-4.87,1.05-4.68c.01-.07.08-.13.15-.13h.46c.07,0,.11.06.1.13l-1.12,4.65-1.09,4.9c-.01.07-.08.13-.15.13h-.46Z"/>
      <path class="cls-4" d="m190.77,95.22c-.07,0-.11-.06-.1-.13l.88-3.68.73-3.28c.01-.07.08-.13.15-.13h.46c.07,0,.11.06.1.13l-.77,3.26-.83,3.7c-.01.07-.08.13-.15.13h-.48Zm1.88-8.21c-.06,0-.11-.06-.1-.13l.15-.71c.01-.07.08-.13.15-.13h.43c.07,0,.11.06.1.13l-.15.71c-.01.07-.08.13-.15.13h-.43Z"/>
      <path class="cls-4" d="m193.7,95.22c-.07,0-.11-.06-.1-.13l.74-3.04.88-3.92c.01-.07.08-.13.15-.13h.43c.07,0,.11.06.1.13l-.35,1.36c.5-.87,1.48-1.65,2.62-1.65,1.41,0,2.34,1.04,1.91,2.91l-.31,1.37-.67,2.97c-.01.07-.08.13-.15.13h-.46c-.06,0-.11-.06-.1-.13l.71-2.97.29-1.3c.39-1.64-.29-2.4-1.4-2.4s-1.98.81-2.63,2.13l-.38,1.57-.66,2.97c-.01.07-.08.13-.15.13h-.48Z"/>
      <path class="cls-4" d="m206.83,93.22c0,1.23-1.16,2.14-2.79,2.14-1.83,0-3.03-.94-2.94-2.59.01-.07.07-.13.14-.13h.41c.07,0,.13.06.13.13-.04,1.26.8,2.07,2.31,2.07,1.2,0,2.04-.66,2.04-1.54,0-1.91-4.26-.95-4.26-3.38,0-1.2,1.19-2.06,2.73-2.06,1.39,0,2.72.76,2.69,2.14,0,.07-.06.13-.13.13h-.39c-.07,0-.13-.06-.13-.13,0-1.04-.99-1.62-2.09-1.62s-1.99.55-1.99,1.48c0,1.88,4.26.91,4.26,3.35Z"/>
      <path class="cls-4" d="m213.77,93.22c0,1.23-1.16,2.14-2.79,2.14-1.83,0-3.03-.94-2.94-2.59.01-.07.07-.13.14-.13h.41c.07,0,.13.06.13.13-.04,1.26.8,2.07,2.31,2.07,1.2,0,2.04-.66,2.04-1.54,0-1.91-4.26-.95-4.26-3.38,0-1.2,1.19-2.06,2.73-2.06,1.39,0,2.72.76,2.69,2.14,0,.07-.06.13-.13.13h-.39c-.07,0-.13-.06-.13-.13,0-1.04-.99-1.62-2.09-1.62s-1.99.55-1.99,1.48c0,1.88,4.26.91,4.26,3.35Z"/>
      <path class="cls-4" d="m221.15,92.67c.07,0,.11.06.1.13-.46,1.58-1.47,2.55-3.21,2.55-1.91,0-2.86-1.29-2.86-3.1,0-2.1,1.37-4.37,3.75-4.37,1.91,0,3.07,1.36,2.65,3.59-.01.07-.08.13-.15.13h-5.52c-.03.21-.04.43-.04.64,0,1.51.66,2.56,2.19,2.56,1.33,0,2.19-.76,2.54-2,.01-.07.08-.13.15-.13h.41Zm-2.27-4.24c-1.54,0-2.51,1.19-2.86,2.6h4.92c.28-1.47-.53-2.6-2.06-2.6Z"/>
      <path class="cls-4" d="m222.38,95.22c-.07,0-.11-.06-.1-.13l.74-3.04.88-3.92c.01-.07.08-.13.15-.13h.43c.07,0,.11.06.1.13l-.35,1.36c.5-.87,1.48-1.65,2.62-1.65,1.42,0,2.34,1.04,1.91,2.91l-.31,1.37-.67,2.97c-.01.07-.08.13-.15.13h-.46c-.06,0-.11-.06-.1-.13l.71-2.97.29-1.3c.39-1.64-.29-2.4-1.4-2.4s-1.98.81-2.63,2.13l-.38,1.57-.66,2.97c-.01.07-.08.13-.15.13h-.48Z"/>
      <path class="cls-4" d="m228.6,97.26c-.06,0-.1-.06-.07-.11l6.74-11.96c.03-.07.11-.11.18-.11h.34c.06,0,.1.06.07.11l-6.74,11.96c-.03.07-.11.11-.18.11h-.34Z"/>
      <path class="cls-4" d="m240.39,93.22c0,1.23-1.16,2.14-2.79,2.14-1.83,0-3.03-.94-2.94-2.59.01-.07.07-.13.14-.13h.41c.07,0,.13.06.13.13-.04,1.26.8,2.07,2.31,2.07,1.21,0,2.04-.66,2.04-1.54,0-1.91-4.26-.95-4.26-3.38,0-1.2,1.19-2.06,2.73-2.06,1.39,0,2.72.76,2.69,2.14,0,.07-.06.13-.13.13h-.39c-.07,0-.13-.06-.13-.13,0-1.04-.99-1.62-2.09-1.62s-1.99.55-1.99,1.48c0,1.88,4.26.91,4.26,3.35Z"/>
      <path class="cls-4" d="m248.34,88.01c.07,0,.11.06.1.13l-.73,3.04-.88,3.92c-.01.07-.08.13-.15.13h-.45c-.06,0-.11-.06-.1-.13l.35-1.36c-.5.88-1.48,1.65-2.62,1.65-1.4,0-2.33-1.04-1.89-2.91l.31-1.37.67-2.97c.01-.07.08-.13.15-.13h.45c.07,0,.11.06.1.13l-.7,2.97-.29,1.3c-.39,1.64.29,2.4,1.4,2.4s1.96-.81,2.62-2.13l.38-1.57.67-2.97c.01-.07.08-.13.15-.13h.46Z"/>
      <path class="cls-4" d="m248.79,95.22c-.07,0-.11-.06-.1-.13l.74-3.04.88-3.92c.01-.07.08-.13.15-.13h.43c.07,0,.11.06.1.13l-.35,1.36c.5-.87,1.49-1.65,2.62-1.65,1.41,0,2.34,1.04,1.9,2.91l-.31,1.37-.67,2.97c-.01.07-.08.13-.15.13h-.46c-.06,0-.11-.06-.1-.13l.71-2.97.29-1.3c.39-1.64-.29-2.4-1.4-2.4s-1.97.81-2.63,2.13l-.38,1.57-.66,2.97c-.01.07-.08.13-.15.13h-.48Z"/>
      <path class="cls-4" d="m259.24,95.33c-1.23,0-2-.66-2.23-1.82l-.34,1.57c-.01.07-.08.13-.15.13h-.45c-.07,0-.11-.06-.1-.13l1.34-5.63.87-3.91c.01-.07.08-.13.15-.13h.46c.07,0,.11.06.1.13l-.87,3.68c.59-.81,1.4-1.33,2.44-1.33,1.88,0,2.7,1.64,2.28,3.82-.34,1.89-1.61,3.61-3.52,3.61Zm-.06-.55c1.61,0,2.58-1.43,2.87-3.07.35-1.85-.14-3.28-1.75-3.28-1.42,0-2.49,1.23-2.86,3.14-.39,2.02.25,3.21,1.74,3.21Z"/>
      <path class="cls-4" d="m268.57,95.22c-.06,0-.11-.06-.1-.13l.29-1.13c-.62.85-1.46,1.36-2.51,1.36-1.93,0-2.73-1.74-2.21-4.03.43-1.83,1.72-3.39,3.52-3.39,1.22,0,1.97.62,2.21,1.72l.31-1.48c.01-.07.08-.13.15-.13h.45c.07,0,.11.06.1.13l-.81,3.35-.8,3.61c-.01.07-.08.13-.15.13h-.45Zm-2.13-.45c1.32,0,2.39-.98,2.86-2.91.52-2.16-.11-3.42-1.68-3.42s-2.51,1.26-2.87,2.83c-.43,1.93,0,3.5,1.7,3.5Z"/>
      <path class="cls-4" d="m274.32,95.07c-.01.07-.08.14-.15.15-.2.06-.48.11-.71.11-.97,0-1.58-.46-1.23-2l1.11-4.75h-.8c-.06,0-.11-.06-.1-.13l.07-.32c.01-.07.08-.13.15-.13h.81l.36-1.68c.01-.07.08-.13.15-.13h.46c.07,0,.11.06.1.13l-.41,1.68h1.69c.07,0,.11.06.1.13l-.07.32c-.01.07-.08.13-.15.13h-1.71l-1.09,4.75c-.25,1.08-.04,1.4.77,1.4.2,0,.43-.03.62-.07.07-.01.11.04.1.1l-.07.31Z"/>
      <path class="cls-4" d="m276.11,95.22c-.07,0-.11-.06-.1-.13l.74-3.04,1.47-6.51c.01-.07.08-.13.15-.13h.45c.07,0,.11.06.1.13l-.94,3.94c.5-.87,1.47-1.64,2.61-1.64,1.41,0,2.34,1.04,1.9,2.91l-.31,1.37-.67,2.97c-.01.07-.08.13-.15.13h-.46c-.06,0-.11-.06-.1-.13l.71-2.97.29-1.3c.39-1.64-.29-2.4-1.4-2.4s-1.97.81-2.63,2.13l-.38,1.57-.66,2.97c-.01.07-.08.13-.15.13h-.48Z"/>
      <path class="cls-4" d="m289.68,92.67c.07,0,.11.06.1.13-.46,1.58-1.47,2.55-3.21,2.55-1.91,0-2.86-1.29-2.86-3.1,0-2.1,1.37-4.37,3.75-4.37,1.91,0,3.07,1.36,2.65,3.59-.01.07-.08.13-.15.13h-5.52c-.03.21-.04.43-.04.64,0,1.51.66,2.56,2.19,2.56,1.33,0,2.18-.76,2.54-2,.01-.07.08-.13.15-.13h.41Zm-2.27-4.24c-1.54,0-2.51,1.19-2.86,2.6h4.92c.28-1.47-.53-2.6-2.06-2.6Z"/>
      <path class="cls-4" d="m290.91,95.22c-.07,0-.11-.06-.1-.13l.87-3.6.74-3.36c.01-.07.08-.13.15-.13h.46c.07,0,.11.06.1.13l-.36,1.39c.71-1.04,1.67-1.6,2.65-1.6.17,0,.34.01.46.04.07.01.11.1.1.15l-.08.36c-.01.07-.08.11-.15.08-.13-.03-.27-.04-.42-.04-1.06,0-2.07.7-2.77,2.1l-1.02,4.47c-.01.07-.08.13-.15.13h-.46Z"/>
    </g>
  </g>
</svg>