<?xml version="1.0" encoding="UTF-8"?>
<svg id="Layer_2" data-name="Layer 2" xmlns="http://www.w3.org/2000/svg" xmlns:xlink="http://www.w3.org/1999/xlink" viewBox="0 0 101.12 104.82">
  <defs>
    <style>
      .cls-1 {
        fill: url(#linear-gradient);
      }

      .cls-1, .cls-2 {
        stroke-width: 0px;
      }

      .cls-2 {
        fill: #0e1110;
      }
    </style>
    <linearGradient id="linear-gradient" x1="17.05" y1="92.44" x2="96.88" y2="12.61" gradientUnits="userSpaceOnUse">
      <stop offset="0" stop-color="#f2c9c2"/>
      <stop offset=".37" stop-color="#f79e84"/>
      <stop offset=".47" stop-color="#ee8b81"/>
      <stop offset=".7" stop-color="#de657d"/>
      <stop offset=".81" stop-color="#b84762"/>
      <stop offset=".93" stop-color="#962d4a"/>
      <stop offset="1" stop-color="#8a2341"/>
    </linearGradient>
  </defs>
  <g id="Layer_1-2" data-name="Layer 1">
    <path class="cls-1" d="m49.17,26.64c21.54,1.94,37.44,20.98,35.5,42.52-1.94,21.54-20.98,37.44-42.52,35.5-21.54-1.94-37.44-20.98-35.5-42.52,1.94-21.54,20.98-37.44,42.52-35.5Zm47.73,35.83c-.38-.07-.61-.44-.52-.81,1.77-6.7,3.22-14.89,2.44-22.3-.23-2.22-.4-7.58,2.14-12.48.25-.47-.13-1.02-.66-.96-4.83.57-8.13,3.29-12.04,5.96-.49.34-1.15-.11-1.01-.69.55-2.2.39-4.09.49-6.7.11-2.75-.43-2.16-.12-7.03.17-2.55,1.46-5.35,4.7-8.45.42-.4.15-1.11-.44-1.13-11.32-.31-19.15,6.57-26.66,9.34-.63.23-1.17-.52-.74-1.03,1.46-1.7,2.38-3.9,2.8-6.12.51-2.68,1.02-6.32,2.48-9.12.27-.52-.22-1.1-.78-.93-7.78,2.46-11.46,4.54-17.18,8.74-2.7,1.98-5.69,4.3-8.83,5.43-1.93.7-2.95.94-4.34,1.46,0,0-4.09,1.37-6.09,2.21-4.01,1.68-8.62,5.73-8.97,9.54-.02.27-.05.76-.07,1.24-.02.51.53.85.98.59,6.43-3.7,13.72-5.66,21.15-5.66,23.24,0,42.36,19.12,42.36,42.36,0,4.26-.64,8.5-1.91,12.57-.13.43.18.86.63.85,1.77-.03,5.85-.69,9.55-5.43,2.89-3.71,4.19-7.73,4.81-10.47.09-.42-.23-.81-.66-.8-1.58.04-2.32.02-3.54-.2Z"/>
    <path class="cls-2" d="m11.55,41.5c1.02-.13,2.08-.22,3.11-.3,3.69-.28,7.73-.69,11.61-.79,7.45-.31,18.81-1.2,26.21-.88,1.28.06,9.48.83,10.26,1.04.16.04.96.31.99.43q-.25,3.37-.49,6.75c-.17.33-1.38-.13-2.17.99-1.11,1.58-3.57,12.01-9.93,14.66-3.45,1.43-9.41,1.45-12.53-.01-3.59-1.69-5.25-5.56-6.39-9.23-1.36-4.36-.86-8.58-4.11-8.26-2.98.29-2.96,4.65-4.73,8.97-.8,1.94-2.7,5.46-4.21,6.7-3.24,2.68-10.45,2.39-13.17.05-1.66-1.43-3.08-4.6-3.66-6.88-.48-1.89-.49-5.63-2.33-5.56.13-1.05.2-4.79.31-5.21.02-.08.28-.42.34-.47"/>
  </g>
</svg>