<?xml version="1.0" encoding="UTF-8"?>
<svg id="Layer_2" data-name="Layer 2" xmlns="http://www.w3.org/2000/svg" viewBox="0 0 310.17 51.27">
  <defs>
    <style>
      .cls-1 {
        stroke-width: 0px;
      }
    </style>
  </defs>
  <g id="Layer_1-2" data-name="Layer 1">
    <g>
      <path class="cls-1" d="m17.28,51.27C6.84,51.27.29,46.88,0,38.38c0-.29.29-.58.58-.58h7.27c.29,0,.58.29.58.58.22,4.9,3.38,7.13,9.22,7.13,4.9,0,7.85-1.94,7.85-5.4,0-8.21-24.63-.94-24.63-16.2,0-7.49,5.98-11.45,15.41-11.45s15.62,3.82,16.2,11.59c0,.29-.29.58-.58.58h-6.91c-.29,0-.58-.22-.65-.58-.58-3.82-3.31-5.98-8.21-5.98-4.25,0-6.98,1.58-6.98,5.18,0,7.99,24.63.43,24.63,16.13,0,7.56-7.06,11.88-16.49,11.88Z"/>
      <path class="cls-1" d="m49.18,51.27c-7.78,0-12.67-5.18-12.67-14.55v-7.63l-.14-15.19c0-.29.29-.58.58-.58h7.63c.29,0,.58.29.58.58l-.14,15.19v7.42c0,5.26,2.81,7.99,6.7,7.99,4.39,0,8.42-3.67,9.15-11.38v-4.03l-.07-15.19c0-.29.29-.58.58-.58h7.7c.29,0,.58.29.58.58l-.14,16.85.07,19.08c0,.29-.29.58-.58.58h-7.27c-.29,0-.58-.29-.58-.58l.22-4.82c-2.45,3.46-6.62,6.26-12.17,6.26Z"/>
      <path class="cls-1" d="m74.16,50.4c-.29,0-.58-.29-.58-.58l.22-16.85-.07-19.08c0-.29.29-.58.58-.58h7.27c.29,0,.58.29.58.58l-.22,4.82c2.38-3.46,6.62-6.26,12.17-6.26,7.71,0,12.67,5.18,12.67,14.55v7.63l.15,15.19c0,.29-.29.58-.58.58h-7.63c-.29,0-.58-.29-.58-.58l.14-15.19v-7.42c0-5.26-2.81-7.99-6.77-7.99-4.32,0-8.42,3.67-9.15,11.38v4.03l.14,15.19c0,.29-.29.58-.58.58h-7.78Z"/>
      <path class="cls-1" d="m130.32,51.12c-4.9,0-8.71-1.87-11.23-5.47l.22,4.18c0,.29-.29.58-.58.58h-7.63c-.29,0-.58-.29-.58-.58l.22-25.71-.22-23.55c0-.29.29-.58.58-.58h7.63c.29,0,.58.29.58.58l-.07,17.57c2.59-3.53,6.34-5.54,11.23-5.54,10.3,0,15.7,8.35,15.7,19.15s-5.9,19.37-15.84,19.37Zm-2.38-6.26c6.34.14,9.36-4.82,9.36-12.67,0-8.42-3.1-13.39-9.14-13.32-5.83,0-9.22,4.25-9.29,12.6-.07,8.57,3.24,13.32,9.07,13.39Z"/>
      <path class="cls-1" d="m175.68,50.4c-.29,0-.58-.29-.58-.58l.14-4.54c-2.52,3.67-6.41,5.83-11.38,5.83-10.3,0-15.7-8.35-15.7-19.15s5.91-19.37,15.84-19.37c4.9,0,8.71,1.87,11.23,5.47l-.22-4.18c0-.29.29-.58.58-.58h7.63c.29,0,.58.29.58.58l-.22,17.86.22,18.07c0,.29-.29.58-.58.58h-7.56Zm-9.5-5.4c5.83,0,9.22-4.32,9.29-12.89.07-8.57-3.24-13.32-9.07-13.39-6.34-.07-9.43,4.75-9.43,12.67,0,8.64,3.17,13.61,9.22,13.61Z"/>
      <path class="cls-1" d="m208.73,49.25c0,.36-.22.65-.58.72-1.8.58-3.96,1.08-5.98,1.08-5.83,0-11.09-2.95-11.09-11.23l.07-20.02h-4.25c-.29,0-.58-.29-.58-.58v-5.33c0-.29.29-.58.58-.58h4.25l-.07-8.71c0-.29.29-.58.58-.58h7.56c.29,0,.58.29.58.58l-.07,8.71h8.42c.29,0,.58.29.58.58v5.33c0,.29-.29.58-.58.58h-8.42v19.8c0,3.74,1.58,4.9,4.32,4.9,1.66,0,3.02-.29,4.1-.58.29-.07.58.14.58.43v4.9Z"/>
      <path class="cls-1" d="m229.25,19.15c-4.25,0-8.28,3.38-9.5,9.72l.22,20.95c0,.29-.29.58-.58.58h-7.49c-.29,0-.58-.29-.58-.58l.29-24.84-.29-24.41c0-.29.29-.58.58-.58h7.49c.29,0,.58.29.58.58l-.14,17.71c2.45-3.53,6.34-5.83,11.67-5.83,8.07,0,13.03,4.9,12.89,15.7v7.71l.14,13.97c0,.29-.29.58-.58.58h-7.7c-.29,0-.58-.29-.58-.58l.22-13.83-.07-8.78c0-5.62-2.88-8.06-6.55-8.06Z"/>
      <path class="cls-1" d="m282.09,37.73c.29,0,.58.29.5.58-1.01,7.13-7.13,12.96-17.07,12.96-11.95,0-18.36-7.99-18.36-19.3s6.84-19.51,18.07-19.51,18,7.78,18.22,20.45c0,.29-.29.58-.58.58h-27.08c.36,7.92,3.6,11.66,9.87,11.66,4.54,0,7.49-2.23,8.5-6.84.07-.36.43-.58.72-.58h7.2Zm-16.78-19.23c-5.18,0-8.28,3.17-9.22,9.15h18c-.36-4.82-3.1-9.15-8.79-9.15Z"/>
      <path class="cls-1" d="m286.91,50.4c-.29,0-.58-.29-.58-.58l.22-18.15-.22-17.79c0-.29.29-.58.58-.58h7.49c.29,0,.58.29.58.58l-.22,5.9c2.74-4.46,7.63-6.77,12.89-6.77.72,0,1.37.07,1.94.14.29.07.58.43.58.72v5.62c0,.29-.29.5-.58.5-.5-.07-1.15-.07-1.73-.07-6.98,0-12.6,4.03-12.89,12.46l.07,17.43c0,.29-.29.58-.58.58h-7.56Z"/>
    </g>
  </g>
</svg>